{
    "asset" : {
        "generator" : "Khronos glTF Blender I/O v1.6.16",
        "version" : "2.0"
    },
    "scene" : 0,
    "scenes" : [
        {
            "name" : "Scene",
            "nodes" : [
                0,
                1,
                2,
                3
            ]
        }
    ],
    "nodes" : [
        {
            "name" : "Light",
            "rotation" : [
                0.16907575726509094,
                0.7558803558349609,
                -0.27217137813568115,
                0.570947527885437
            ],
            "translation" : [
                4.076245307922363,
                5.903861999511719,
                -1.0054539442062378
            ]
        },
        {
            "name" : "Camera",
            "rotation" : [
                0.483536034822464,
                0.33687159419059753,
                -0.20870360732078552,
                0.7804827094078064
            ],
            "translation" : [
                7.358891487121582,
                4.958309173583984,
                6.925790786743164
            ]
        },
        {
            "mesh" : 0,
            "name" : "Cube",
            "scale" : [
                -0.21968159079551697,
                -0.21968159079551697,
                -0.0848509669303894
            ],
            "translation" : [
                0,
                1,
                -1.2000000476837158
            ]
        },
        {
            "mesh" : 1,
            "name" : "BOX",
            "scale" : [
                1.0296558141708374,
                0.9993408918380737,
                1.4990112781524658
            ],
            "translation" : [
                0.004793073982000351,
                0.08689466863870621,
                0
            ]
        }
    ],
    "materials" : [
        {
            "doubleSided" : true,
            "name" : "Material.005",
            "pbrMetallicRoughness" : {
                "baseColorFactor" : [
                    0.8000000715255737,
                    0.27518731355667114,
                    0.028651626780629158,
                    1
                ],
                "metallicFactor" : 0
            }
        },
        {
            "doubleSided" : true,
            "name" : "Material",
            "pbrMetallicRoughness" : {
                "baseColorFactor" : [
                    0.001547704334370792,
                    0.0007908249390311539,
                    0.0006721910904161632,
                    1
                ],
                "metallicFactor" : 0,
                "roughnessFactor" : 0.5
            }
        },
        {
            "doubleSided" : true,
            "name" : "Material.007",
            "pbrMetallicRoughness" : {
                "baseColorFactor" : [
                    0.8000000715255737,
                    0,
                    0.0044170524924993515,
                    1
                ],
                "metallicFactor" : 0,
                "roughnessFactor" : 0.5
            }
        },
        {
            "doubleSided" : true,
            "name" : "Material.006",
            "pbrMetallicRoughness" : {
                "baseColorFactor" : [
                    0.7874841690063477,
                    0.8000000715255737,
                    0.15924522280693054,
                    1
                ],
                "metallicFactor" : 0.8108108043670654,
                "roughnessFactor" : 0.5
            }
        },
        {
            "doubleSided" : true,
            "name" : "Material.001",
            "pbrMetallicRoughness" : {
                "baseColorFactor" : [
                    0.7125447988510132,
                    0.8000000715255737,
                    0.0019668161403387785,
                    1
                ],
                "metallicFactor" : 0,
                "roughnessFactor" : 0.5
            }
        },
        {
            "doubleSided" : true,
            "name" : "Material.004",
            "pbrMetallicRoughness" : {
                "baseColorFactor" : [
                    0.8000000715255737,
                    0,
                    0.002322359709069133,
                    1
                ],
                "metallicFactor" : 0,
                "roughnessFactor" : 0.29729729890823364
            }
        },
        {
            "doubleSided" : true,
            "name" : "Material.003",
            "pbrMetallicRoughness" : {
                "baseColorFactor" : [
                    0.763225257396698,
                    0.8000000715255737,
                    0.039558373391628265,
                    1
                ],
                "metallicFactor" : 0.837837815284729,
                "roughnessFactor" : 0.5
            }
        }
    ],
    "meshes" : [
        {
            "name" : "Cube.003",
            "primitives" : [
                {
                    "attributes" : {
                        "POSITION" : 0,
                        "NORMAL" : 1,
                        "TEXCOORD_0" : 2
                    },
                    "indices" : 3,
                    "material" : 0
                },
                {
                    "attributes" : {
                        "POSITION" : 4,
                        "NORMAL" : 5,
                        "TEXCOORD_0" : 6
                    },
                    "indices" : 7,
                    "material" : 1
                },
                {
                    "attributes" : {
                        "POSITION" : 8,
                        "NORMAL" : 9,
                        "TEXCOORD_0" : 10
                    },
                    "indices" : 11,
                    "material" : 2
                },
                {
                    "attributes" : {
                        "POSITION" : 12,
                        "NORMAL" : 13,
                        "TEXCOORD_0" : 14
                    },
                    "indices" : 15,
                    "material" : 3
                },
                {
                    "attributes" : {
                        "POSITION" : 16,
                        "NORMAL" : 17,
                        "TEXCOORD_0" : 18
                    },
                    "indices" : 19,
                    "material" : 4
                }
            ]
        },
        {
            "name" : "Cube.001",
            "primitives" : [
                {
                    "attributes" : {
                        "POSITION" : 20,
                        "NORMAL" : 21,
                        "TEXCOORD_0" : 22
                    },
                    "indices" : 23,
                    "material" : 5
                },
                {
                    "attributes" : {
                        "POSITION" : 24,
                        "NORMAL" : 25,
                        "TEXCOORD_0" : 26
                    },
                    "indices" : 27,
                    "material" : 6
                }
            ]
        }
    ],
    "accessors" : [
        {
            "bufferView" : 0,
            "componentType" : 5126,
            "count" : 127,
            "max" : [
                1,
                1,
                1
            ],
            "min" : [
                -1,
                -1,
                -1
            ],
            "type" : "VEC3"
        },
        {
            "bufferView" : 1,
            "componentType" : 5126,
            "count" : 127,
            "type" : "VEC3"
        },
        {
            "bufferView" : 2,
            "componentType" : 5126,
            "count" : 127,
            "type" : "VEC2"
        },
        {
            "bufferView" : 3,
            "componentType" : 5123,
            "count" : 144,
            "type" : "SCALAR"
        },
        {
            "bufferView" : 4,
            "componentType" : 5126,
            "count" : 269,
            "max" : [
                0.28867506980895996,
                0.4804736375808716,
                0.9853980541229248
            ],
            "min" : [
                -0.28867506980895996,
                -0.5235087871551514,
                0.04641425609588623
            ],
            "type" : "VEC3"
        },
        {
            "bufferView" : 5,
            "componentType" : 5126,
            "count" : 269,
            "type" : "VEC3"
        },
        {
            "bufferView" : 6,
            "componentType" : 5126,
            "count" : 269,
            "type" : "VEC2"
        },
        {
            "bufferView" : 7,
            "componentType" : 5123,
            "count" : 318,
            "type" : "SCALAR"
        },
        {
            "bufferView" : 8,
            "componentType" : 5126,
            "count" : 212,
            "max" : [
                9.32279109954834,
                -0.009233728051185608,
                -1.5506505966186523
            ],
            "min" : [
                -9.232844352722168,
                -4.561277866363525,
                -26.302318572998047
            ],
            "type" : "VEC3"
        },
        {
            "bufferView" : 9,
            "componentType" : 5126,
            "count" : 212,
            "type" : "VEC3"
        },
        {
            "bufferView" : 10,
            "componentType" : 5126,
            "count" : 212,
            "type" : "VEC2"
        },
        {
            "bufferView" : 11,
            "componentType" : 5123,
            "count" : 1062,
            "type" : "SCALAR"
        },
        {
            "bufferView" : 12,
            "componentType" : 5126,
            "count" : 516,
            "max" : [
                9.775993347167969,
                -0.09504111856222153,
                -1.1157732009887695
            ],
            "min" : [
                -9.85168743133545,
                -4.830055236816406,
                -26.852731704711914
            ],
            "type" : "VEC3"
        },
        {
            "bufferView" : 13,
            "componentType" : 5126,
            "count" : 516,
            "type" : "VEC3"
        },
        {
            "bufferView" : 14,
            "componentType" : 5126,
            "count" : 516,
            "type" : "VEC2"
        },
        {
            "bufferView" : 15,
            "componentType" : 5123,
            "count" : 2760,
            "type" : "SCALAR"
        },
        {
            "bufferView" : 16,
            "componentType" : 5126,
            "count" : 3208,
            "max" : [
                9.581880569458008,
                -0.05339115113019943,
                -0.5357112884521484
            ],
            "min" : [
                -9.688343048095703,
                -1.2450445890426636,
                -27.68848419189453
            ],
            "type" : "VEC3"
        },
        {
            "bufferView" : 17,
            "componentType" : 5126,
            "count" : 3208,
            "type" : "VEC3"
        },
        {
            "bufferView" : 18,
            "componentType" : 5126,
            "count" : 3208,
            "type" : "VEC2"
        },
        {
            "bufferView" : 19,
            "componentType" : 5123,
            "count" : 5376,
            "type" : "SCALAR"
        },
        {
            "bufferView" : 20,
            "componentType" : 5126,
            "count" : 596,
            "max" : [
                2,
                0.913105309009552,
                0.6666666865348816
            ],
            "min" : [
                -2,
                -1.0868946313858032,
                -0.6666666865348816
            ],
            "type" : "VEC3"
        },
        {
            "bufferView" : 21,
            "componentType" : 5126,
            "count" : 596,
            "type" : "VEC3"
        },
        {
            "bufferView" : 22,
            "componentType" : 5126,
            "count" : 596,
            "type" : "VEC2"
        },
        {
            "bufferView" : 23,
            "componentType" : 5123,
            "count" : 1344,
            "type" : "SCALAR"
        },
        {
            "bufferView" : 24,
            "componentType" : 5126,
            "count" : 1312,
            "max" : [
                2.0703001022338867,
                0.9298802614212036,
                0.7404672503471375
            ],
            "min" : [
                -2.0703001022338867,
                -1.1475971937179565,
                -0.7404672503471375
            ],
            "type" : "VEC3"
        },
        {
            "bufferView" : 25,
            "componentType" : 5126,
            "count" : 1312,
            "type" : "VEC3"
        },
        {
            "bufferView" : 26,
            "componentType" : 5126,
            "count" : 1312,
            "type" : "VEC2"
        },
        {
            "bufferView" : 27,
            "componentType" : 5123,
            "count" : 6336,
            "type" : "SCALAR"
        }
    ],
    "bufferViews" : [
        {
            "buffer" : 0,
            "byteLength" : 1524,
            "byteOffset" : 0
        },
        {
            "buffer" : 0,
            "byteLength" : 1524,
            "byteOffset" : 1524
        },
        {
            "buffer" : 0,
            "byteLength" : 1016,
            "byteOffset" : 3048
        },
        {
            "buffer" : 0,
            "byteLength" : 288,
            "byteOffset" : 4064
        },
        {
            "buffer" : 0,
            "byteLength" : 3228,
            "byteOffset" : 4352
        },
        {
            "buffer" : 0,
            "byteLength" : 3228,
            "byteOffset" : 7580
        },
        {
            "buffer" : 0,
            "byteLength" : 2152,
            "byteOffset" : 10808
        },
        {
            "buffer" : 0,
            "byteLength" : 636,
            "byteOffset" : 12960
        },
        {
            "buffer" : 0,
            "byteLength" : 2544,
            "byteOffset" : 13596
        },
        {
            "buffer" : 0,
            "byteLength" : 2544,
            "byteOffset" : 16140
        },
        {
            "buffer" : 0,
            "byteLength" : 1696,
            "byteOffset" : 18684
        },
        {
            "buffer" : 0,
            "byteLength" : 2124,
            "byteOffset" : 20380
        },
        {
            "buffer" : 0,
            "byteLength" : 6192,
            "byteOffset" : 22504
        },
        {
            "buffer" : 0,
            "byteLength" : 6192,
            "byteOffset" : 28696
        },
        {
            "buffer" : 0,
            "byteLength" : 4128,
            "byteOffset" : 34888
        },
        {
            "buffer" : 0,
            "byteLength" : 5520,
            "byteOffset" : 39016
        },
        {
            "buffer" : 0,
            "byteLength" : 38496,
            "byteOffset" : 44536
        },
        {
            "buffer" : 0,
            "byteLength" : 38496,
            "byteOffset" : 83032
        },
        {
            "buffer" : 0,
            "byteLength" : 25664,
            "byteOffset" : 121528
        },
        {
            "buffer" : 0,
            "byteLength" : 10752,
            "byteOffset" : 147192
        },
        {
            "buffer" : 0,
            "byteLength" : 7152,
            "byteOffset" : 157944
        },
        {
            "buffer" : 0,
            "byteLength" : 7152,
            "byteOffset" : 165096
        },
        {
            "buffer" : 0,
            "byteLength" : 4768,
            "byteOffset" : 172248
        },
        {
            "buffer" : 0,
            "byteLength" : 2688,
            "byteOffset" : 177016
        },
        {
            "buffer" : 0,
            "byteLength" : 15744,
            "byteOffset" : 179704
        },
        {
            "buffer" : 0,
            "byteLength" : 15744,
            "byteOffset" : 195448
        },
        {
            "buffer" : 0,
            "byteLength" : 10496,
            "byteOffset" : 211192
        },
        {
            "buffer" : 0,
            "byteLength" : 12672,
            "byteOffset" : 221688
        }
    ],
    "buffers" : [
        {
            "byteLength" : 234360,
            "uri" : "data:application/octet-stream;base64,"
        }
    ]
}
